{
  "accessors": [
    {
      "bufferView": 2,
      "componentType": 5126,
      "count": 510,
      "max": [
        7.546978950500488,
        7.590423583984375,
        2.7747020721435547
      ],
      "min": [
        -5.370260715484619,
        -5.615847587585449,
        -1.003318428993225
      ],
      "type": "VEC3"
    },
    {
      "bufferView": 2,
      "byteOffset": 6120,
      "componentType": 5126,
      "count": 510,
      "max": [
        0.9985804557800293,
        0.9932350516319275,
        0.9999996423721313
      ],
      "min": [
        -0.997580349445343,
        -0.9849745631217957,
        -1.0
      ],
      "type": "VEC3"
    },
    {
      "bufferView": 1,
      "componentType": 5126,
      "count": 510,
      "max": [
        5.994434356689453,
        1.0129263401031494
      ],
      "min": [
        -4.192610740661621,
        -4.316856861114502
      ],
      "type": "VEC2"
    },
    {
      "bufferView": 0,
      "componentType": 5125,
      "count": 1986,
      "type": "SCALAR"
    },
    {
      "bufferView": 2,
      "byteOffset": 12240,
      "componentType": 5126,
      "count": 57501,
      "max": [
        10.565864562988281,
        10.250173568725586,
        9.187573432922363
      ],
      "min": [
        -8.54092025756836,
        -6.737771511077881,
        -0.5520066618919373
      ],
      "type": "VEC3"
    },
    {
      "bufferView": 2,
      "byteOffset": 702252,
      "componentType": 5126,
      "count": 57501,
      "max": [
        1.0,
        1.0,
        1.0
      ],
      "min": [
        -1.0,
        -1.0,
        -1.0
      ],
      "type": "VEC3"
    },
    {
      "bufferView": 1,
      "byteOffset": 4080,
      "componentType": 5126,
      "count": 57501,
      "max": [
        1.0005886554718018,
        0.9994729161262512
      ],
      "min": [
        0.00015445331519003958,
        0.0017774414736777544
      ],
      "type": "VEC2"
    },
    {
      "bufferView": 1,
      "byteOffset": 464088,
      "componentType": 5126,
      "count": 57501,
      "max": [
        1.000586748123169,
        0.99609375
      ],
      "min": [
        0.00390625,
        0.00390625
      ],
      "type": "VEC2"
    },
    {
      "bufferView": 0,
      "byteOffset": 7944,
      "componentType": 5125,
      "count": 150561,
      "type": "SCALAR"
    }
  ],
  "asset": {
    "extras": {
      "author": "stef.bracke (https://sketchfab.com/stef.bracke)",
      "license": "CC-BY-4.0 (http://creativecommons.org/licenses/by/4.0/)",
      "source": "https://sketchfab.com/3d-models/ancient-egyptian-pottery-690932f4d1c3450da7af05aa4d801273",
      "title": "Ancient Egyptian Pottery"
    },
    "generator": "Sketchfab-15.26.0",
    "version": "2.0"
  },
  "bufferViews": [
    {
      "buffer": 0,
      "byteLength": 610188,
      "name": "floatBufferViews",
      "target": 34963
    },
    {
      "buffer": 0,
      "byteLength": 924096,
      "byteOffset": 610188,
      "byteStride": 8,
      "name": "floatBufferViews",
      "target": 34962
    },
    {
      "buffer": 0,
      "byteLength": 1392264,
      "byteOffset": 1534284,
      "byteStride": 12,
      "name": "floatBufferViews",
      "target": 34962
    }
  ],
  "buffers": [
    {
      "byteLength": 2926548,
      "uri": "scene.bin"
    }
  ],
  "extensionsUsed": [
    "KHR_materials_specular"
  ],
  "images": [
    {
      "uri": "textures/Ground_baseColor.jpeg"
    },
    {
      "uri": "textures/Pottery_baseColor.jpeg"
    },
    {
      "uri": "textures/Pottery_metallicRoughness.png"
    }
  ],
  "materials": [
    {
      "doubleSided": true,
      "name": "Ground",
      "pbrMetallicRoughness": {
        "baseColorTexture": {
          "index": 0
        },
        "metallicFactor": 0.0,
        "roughnessFactor": 0.9
      }
    },
    {
      "doubleSided": true,
      "extensions": {
        "KHR_materials_specular": {
          "specularColorFactor": [
            1.0,
            1.0,
            1.0
          ],
          "specularFactor": 0.0
        }
      },
      "name": "Pottery",
      "occlusionTexture": {
        "index": 2,
        "texCoord": 1
      },
      "pbrMetallicRoughness": {
        "baseColorTexture": {
          "index": 1
        },
        "metallicFactor": 0.0,
        "metallicRoughnessTexture": {
          "index": 2,
          "texCoord": 1
        }
      }
    }
  ],
  "meshes": [
    {
      "name": "GroundPlane_Ground_0",
      "primitives": [
        {
          "attributes": {
            "NORMAL": 1,
            "POSITION": 0,
            "TEXCOORD_0": 2
          },
          "indices": 3,
          "material": 0,
          "mode": 4
        }
      ]
    },
    {
      "name": "Pottery_Pottery_0",
      "primitives": [
        {
          "attributes": {
            "NORMAL": 5,
            "POSITION": 4,
            "TEXCOORD_0": 6,
            "TEXCOORD_1": 7
          },
          "indices": 8,
          "material": 1,
          "mode": 4
        }
      ]
    }
  ],
  "nodes": [
    {
      "children": [
        1
      ],
      "matrix": [
        1.0,
        0.0,
        0.0,
        0.0,
        0.0,
        2.220446049250313e-16,
        -1.0,
        0.0,
        0.0,
        1.0,
        2.220446049250313e-16,
        0.0,
        0.0,
        0.0,
        0.0,
        1.0
      ],
      "name": "Sketchfab_model"
    },
    {
      "children": [
        2
      ],
      "matrix": [
        1.0,
        0.0,
        0.0,
        0.0,
        0.0,
        0.0,
        1.0,
        0.0,
        0.0,
        -1.0,
        0.0,
        0.0,
        0.0,
        0.0,
        0.0,
        1.0
      ],
      "name": "72f24bae7671445aa0563a1beb18bf94.fbx"
    },
    {
      "children": [
        3,
        5
      ],
      "name": "RootNode"
    },
    {
      "children": [
        4
      ],
      "matrix": [
        100.0,
        0.0,
        0.0,
        0.0,
        0.0,
        -2.8212996916465727e-05,
        -99.99999999999602,
        0.0,
        0.0,
        99.99999999999602,
        -2.8212996916465727e-05,
        0.0,
        0.0,
        0.0,
        0.0,
        1.0
      ],
      "name": "GroundPlane"
    },
    {
      "mesh": 0,
      "name": "GroundPlane_Ground_0"
    },
    {
      "children": [
        6
      ],
      "matrix": [
        100.0,
        0.0,
        0.0,
        0.0,
        0.0,
        -2.8212996916465727e-05,
        -99.99999999999602,
        0.0,
        0.0,
        99.99999999999602,
        -2.8212996916465727e-05,
        0.0,
        0.0,
        0.0,
        0.0,
        1.0
      ],
      "name": "Pottery"
    },
    {
      "mesh": 1,
      "name": "Pottery_Pottery_0"
    }
  ],
  "samplers": [
    {
      "magFilter": 9729,
      "minFilter": 9987,
      "wrapS": 10497,
      "wrapT": 10497
    }
  ],
  "scene": 0,
  "scenes": [
    {
      "name": "Sketchfab_Scene",
      "nodes": [
        0
      ]
    }
  ],
  "textures": [
    {
      "sampler": 0,
      "source": 0
    },
    {
      "sampler": 0,
      "source": 1
    },
    {
      "sampler": 0,
      "source": 2
    }
  ]
}
