{
  "accessors": [
    {
      "bufferView": 2,
      "componentType": 5126,
      "count": 65532,
      "max": [
        0.9487990140914917,
        0.47174111008644104,
        0.6747410297393799
      ],
      "min": [
        -0.9181910157203674,
        -0.47054797410964966,
        -0.6736351251602173
      ],
      "type": "VEC3"
    },
    {
      "bufferView": 2,
      "byteOffset": 786384,
      "componentType": 5126,
      "count": 65532,
      "max": [
        1.0,
        1.0,
        1.0
      ],
      "min": [
        -1.0,
        -1.0,
        -1.0
      ],
      "type": "VEC3"
    },
    {
      "bufferView": 3,
      "componentType": 5126,
      "count": 65532,
      "max": [
        1.0,
        1.0,
        0.9999972581863403,
        1.0
      ],
      "min": [
        -0.9999986886978149,
        -1.0,
        -0.9999998807907104,
        -1.0
      ],
      "type": "VEC4"
    },
    {
      "bufferView": 1,
      "componentType": 5126,
      "count": 65532,
      "max": [
        0.998924970626831,
        0.997857391834259
      ],
      "min": [
        0.007153830025345087,
        0.0030609965324401855
      ],
      "type": "VEC2"
    },
    {
      "bufferView": 1,
      "byteOffset": 524256,
      "componentType": 5126,
      "count": 65532,
      "max": [
        0.998924970626831,
        0.997857391834259
      ],
      "min": [
        0.007153830025345087,
        0.0030609965324401855
      ],
      "type": "VEC2"
    },
    {
      "bufferView": 1,
      "byteOffset": 1048512,
      "componentType": 5126,
      "count": 65532,
      "max": [
        0.998924970626831,
        0.997857391834259
      ],
      "min": [
        0.007153830025345087,
        0.0030609965324401855
      ],
      "type": "VEC2"
    },
    {
      "bufferView": 1,
      "byteOffset": 1572768,
      "componentType": 5126,
      "count": 65532,
      "max": [
        0.998924970626831,
        0.997857391834259
      ],
      "min": [
        0.007153830025345087,
        0.0030609965324401855
      ],
      "type": "VEC2"
    },
    {
      "bufferView": 0,
      "componentType": 5125,
      "count": 335991,
      "type": "SCALAR"
    },
    {
      "bufferView": 2,
      "byteOffset": 1572768,
      "componentType": 5126,
      "count": 65532,
      "max": [
        0.9488009810447693,
        0.4717140197753906,
        0.6749470233917236
      ],
      "min": [
        -0.9491819739341736,
        -0.46892815828323364,
        -0.5769510865211487
      ],
      "type": "VEC3"
    },
    {
      "bufferView": 2,
      "byteOffset": 2359152,
      "componentType": 5126,
      "count": 65532,
      "max": [
        1.0,
        1.0,
        1.0
      ],
      "min": [
        -1.0,
        -1.0,
        -0.9999999403953552
      ],
      "type": "VEC3"
    },
    {
      "bufferView": 3,
      "byteOffset": 1048512,
      "componentType": 5126,
      "count": 65532,
      "max": [
        0.9999945759773254,
        0.9999999403953552,
        0.9999963641166687,
        1.0
      ],
      "min": [
        -0.9999951720237732,
        -0.9999990463256836,
        -0.9999890327453613,
        -1.0
      ],
      "type": "VEC4"
    },
    {
      "bufferView": 1,
      "byteOffset": 2097024,
      "componentType": 5126,
      "count": 65532,
      "max": [
        0.9999250173568726,
        0.9984055757522583
      ],
      "min": [
        0.00011397500202292576,
        0.0016679763793945313
      ],
      "type": "VEC2"
    },
    {
      "bufferView": 1,
      "byteOffset": 2621280,
      "componentType": 5126,
      "count": 65532,
      "max": [
        0.9999250173568726,
        0.9984055757522583
      ],
      "min": [
        0.00011397500202292576,
        0.0016679763793945313
      ],
      "type": "VEC2"
    },
    {
      "bufferView": 1,
      "byteOffset": 3145536,
      "componentType": 5126,
      "count": 65532,
      "max": [
        0.9999250173568726,
        0.9984055757522583
      ],
      "min": [
        0.00011397500202292576,
        0.0016679763793945313
      ],
      "type": "VEC2"
    },
    {
      "bufferView": 1,
      "byteOffset": 3669792,
      "componentType": 5126,
      "count": 65532,
      "max": [
        0.9999250173568726,
        0.9984055757522583
      ],
      "min": [
        0.00011397500202292576,
        0.0016679763793945313
      ],
      "type": "VEC2"
    },
    {
      "bufferView": 0,
      "byteOffset": 1343964,
      "componentType": 5125,
      "count": 332307,
      "type": "SCALAR"
    },
    {
      "bufferView": 2,
      "byteOffset": 3145536,
      "componentType": 5126,
      "count": 65532,
      "max": [
        0.9295039772987366,
        -0.3214370906352997,
        0.6748600006103516
      ],
      "min": [
        -0.9456480145454407,
        -0.4687451422214508,
        0.48738402128219604
      ],
      "type": "VEC3"
    },
    {
      "bufferView": 2,
      "byteOffset": 3931920,
      "componentType": 5126,
      "count": 65532,
      "max": [
        0.999902069568634,
        0.9999992847442627,
        0.999999463558197
      ],
      "min": [
        -0.9999550580978394,
        -1.0,
        -0.9999996423721313
      ],
      "type": "VEC3"
    },
    {
      "bufferView": 3,
      "byteOffset": 2097024,
      "componentType": 5126,
      "count": 65532,
      "max": [
        0.9999994039535522,
        0.9999979734420776,
        0.9999856948852539,
        1.0
      ],
      "min": [
        -0.999994158744812,
        -0.9999482035636902,
        -0.9999669194221497,
        -1.0
      ],
      "type": "VEC4"
    },
    {
      "bufferView": 1,
      "byteOffset": 4194048,
      "componentType": 5126,
      "count": 65532,
      "max": [
        0.9984229803085327,
        0.9989965558052063
      ],
      "min": [
        0.00010233699867967516,
        1.4007091522216797e-05
      ],
      "type": "VEC2"
    },
    {
      "bufferView": 1,
      "byteOffset": 4718304,
      "componentType": 5126,
      "count": 65532,
      "max": [
        0.9984229803085327,
        0.9989965558052063
      ],
      "min": [
        0.00010233699867967516,
        1.4007091522216797e-05
      ],
      "type": "VEC2"
    },
    {
      "bufferView": 1,
      "byteOffset": 5242560,
      "componentType": 5126,
      "count": 65532,
      "max": [
        0.9984229803085327,
        0.9989965558052063
      ],
      "min": [
        0.00010233699867967516,
        1.4007091522216797e-05
      ],
      "type": "VEC2"
    },
    {
      "bufferView": 1,
      "byteOffset": 5766816,
      "componentType": 5126,
      "count": 65532,
      "max": [
        0.9984229803085327,
        0.9989965558052063
      ],
      "min": [
        0.00010233699867967516,
        1.4007091522216797e-05
      ],
      "type": "VEC2"
    },
    {
      "bufferView": 0,
      "byteOffset": 2673192,
      "componentType": 5125,
      "count": 324537,
      "type": "SCALAR"
    },
    {
      "bufferView": 2,
      "byteOffset": 4718304,
      "componentType": 5126,
      "count": 65532,
      "max": [
        0.9487969875335693,
        0.2946670651435852,
        0.6116570234298706
      ],
      "min": [
        -0.9470369815826416,
        -0.4687311053276062,
        -0.3596210181713104
      ],
      "type": "VEC3"
    },
    {
      "bufferView": 2,
      "byteOffset": 5504688,
      "componentType": 5126,
      "count": 65532,
      "max": [
        1.0,
        1.0,
        0.9999994039535522
      ],
      "min": [
        -1.0,
        -1.0,
        -0.9999993443489075
      ],
      "type": "VEC3"
    },
    {
      "bufferView": 3,
      "byteOffset": 3145536,
      "componentType": 5126,
      "count": 65532,
      "max": [
        0.9999991059303284,
        0.9999931454658508,
        0.9999998211860657,
        1.0
      ],
      "min": [
        -0.9999916553497314,
        -0.9999991655349731,
        -0.9999984502792358,
        -1.0
      ],
      "type": "VEC4"
    },
    {
      "bufferView": 1,
      "byteOffset": 6291072,
      "componentType": 5126,
      "count": 65532,
      "max": [
        0.9998700022697449,
        0.9999157786369324
      ],
      "min": [
        0.00013606999709736556,
        4.601478576660156e-05
      ],
      "type": "VEC2"
    },
    {
      "bufferView": 1,
      "byteOffset": 6815328,
      "componentType": 5126,
      "count": 65532,
      "max": [
        0.9998700022697449,
        0.9999157786369324
      ],
      "min": [
        0.00013606999709736556,
        4.601478576660156e-05
      ],
      "type": "VEC2"
    },
    {
      "bufferView": 1,
      "byteOffset": 7339584,
      "componentType": 5126,
      "count": 65532,
      "max": [
        0.9998700022697449,
        0.9999157786369324
      ],
      "min": [
        0.00013606999709736556,
        4.601478576660156e-05
      ],
      "type": "VEC2"
    },
    {
      "bufferView": 1,
      "byteOffset": 7863840,
      "componentType": 5126,
      "count": 65532,
      "max": [
        0.9998700022697449,
        0.9999157786369324
      ],
      "min": [
        0.00013606999709736556,
        4.601478576660156e-05
      ],
      "type": "VEC2"
    },
    {
      "bufferView": 0,
      "byteOffset": 3971340,
      "componentType": 5125,
      "count": 323424,
      "type": "SCALAR"
    },
    {
      "bufferView": 2,
      "byteOffset": 6291072,
      "componentType": 5126,
      "count": 65532,
      "max": [
        0.9487969875335693,
        0.47169604897499084,
        0.2832169830799103
      ],
      "min": [
        -0.9494280219078064,
        -0.4681180417537689,
        -0.384860098361969
      ],
      "type": "VEC3"
    },
    {
      "bufferView": 2,
      "byteOffset": 7077456,
      "componentType": 5126,
      "count": 65532,
      "max": [
        1.0,
        1.0,
        1.0
      ],
      "min": [
        -1.0,
        -1.0,
        -0.9999464750289917
      ],
      "type": "VEC3"
    },
    {
      "bufferView": 3,
      "byteOffset": 4194048,
      "componentType": 5126,
      "count": 65532,
      "max": [
        0.9999999403953552,
        0.9999927282333374,
        1.0,
        1.0
      ],
      "min": [
        -0.9999951124191284,
        -0.9999997019767761,
        -1.0,
        -1.0
      ],
      "type": "VEC4"
    },
    {
      "bufferView": 1,
      "byteOffset": 8388096,
      "componentType": 5126,
      "count": 65532,
      "max": [
        0.9999060034751892,
        0.9993683099746704
      ],
      "min": [
        3.9254300645552576e-06,
        4.398822784423828e-05
      ],
      "type": "VEC2"
    },
    {
      "bufferView": 1,
      "byteOffset": 8912352,
      "componentType": 5126,
      "count": 65532,
      "max": [
        0.9999060034751892,
        0.9993683099746704
      ],
      "min": [
        3.9254300645552576e-06,
        4.398822784423828e-05
      ],
      "type": "VEC2"
    },
    {
      "bufferView": 1,
      "byteOffset": 9436608,
      "componentType": 5126,
      "count": 65532,
      "max": [
        0.9999060034751892,
        0.9993683099746704
      ],
      "min": [
        3.9254300645552576e-06,
        4.398822784423828e-05
      ],
      "type": "VEC2"
    },
    {
      "bufferView": 1,
      "byteOffset": 9960864,
      "componentType": 5126,
      "count": 65532,
      "max": [
        0.9999060034751892,
        0.9993683099746704
      ],
      "min": [
        3.9254300645552576e-06,
        4.398822784423828e-05
      ],
      "type": "VEC2"
    },
    {
      "bufferView": 0,
      "byteOffset": 5265036,
      "componentType": 5125,
      "count": 335877,
      "type": "SCALAR"
    },
    {
      "bufferView": 2,
      "byteOffset": 7863840,
      "componentType": 5126,
      "count": 65532,
      "max": [
        0.9488009810447693,
        0.4717210829257965,
        -0.14063706994056702
      ],
      "min": [
        -0.9502170085906982,
        -0.46832898259162903,
        -0.673612117767334
      ],
      "type": "VEC3"
    },
    {
      "bufferView": 2,
      "byteOffset": 8650224,
      "componentType": 5126,
      "count": 65532,
      "max": [
        1.0,
        1.0,
        1.0
      ],
      "min": [
        -1.0,
        -1.0,
        -1.0
      ],
      "type": "VEC3"
    },
    {
      "bufferView": 3,
      "byteOffset": 5242560,
      "componentType": 5126,
      "count": 65532,
      "max": [
        0.9999992251396179,
        0.9999997615814209,
        0.9999998807907104,
        1.0
      ],
      "min": [
        -0.9999988675117493,
        -0.9999998807907104,
        -1.0,
        -1.0
      ],
      "type": "VEC4"
    },
    {
      "bufferView": 1,
      "byteOffset": 10485120,
      "componentType": 5126,
      "count": 65532,
      "max": [
        0.9993169903755188,
        0.9989145398139954
      ],
      "min": [
        3.0259099730756134e-05,
        0.0006949901580810547
      ],
      "type": "VEC2"
    },
    {
      "bufferView": 1,
      "byteOffset": 11009376,
      "componentType": 5126,
      "count": 65532,
      "max": [
        0.9993169903755188,
        0.9989145398139954
      ],
      "min": [
        3.0259099730756134e-05,
        0.0006949901580810547
      ],
      "type": "VEC2"
    },
    {
      "bufferView": 1,
      "byteOffset": 11533632,
      "componentType": 5126,
      "count": 65532,
      "max": [
        0.9993169903755188,
        0.9989145398139954
      ],
      "min": [
        3.0259099730756134e-05,
        0.0006949901580810547
      ],
      "type": "VEC2"
    },
    {
      "bufferView": 1,
      "byteOffset": 12057888,
      "componentType": 5126,
      "count": 65532,
      "max": [
        0.9993169903755188,
        0.9989145398139954
      ],
      "min": [
        3.0259099730756134e-05,
        0.0006949901580810547
      ],
      "type": "VEC2"
    },
    {
      "bufferView": 0,
      "byteOffset": 6608544,
      "componentType": 5125,
      "count": 324771,
      "type": "SCALAR"
    },
    {
      "bufferView": 2,
      "byteOffset": 9436608,
      "componentType": 5126,
      "count": 65532,
      "max": [
        0.9488580226898193,
        0.4717271327972412,
        -0.3327200710773468
      ],
      "min": [
        -0.9470189809799194,
        -0.46868598461151123,
        -0.6736221313476563
      ],
      "type": "VEC3"
    },
    {
      "bufferView": 2,
      "byteOffset": 10222992,
      "componentType": 5126,
      "count": 65532,
      "max": [
        1.0,
        1.0,
        1.0
      ],
      "min": [
        -1.0,
        -1.0,
        -1.0
      ],
      "type": "VEC3"
    },
    {
      "bufferView": 3,
      "byteOffset": 6291072,
      "componentType": 5126,
      "count": 65532,
      "max": [
        0.9999995231628418,
        1.0,
        0.9999993443489075,
        1.0
      ],
      "min": [
        -0.9999995827674866,
        -0.9999995231628418,
        -0.9999988079071045,
        -1.0
      ],
      "type": "VEC4"
    },
    {
      "bufferView": 1,
      "byteOffset": 12582144,
      "componentType": 5126,
      "count": 65532,
      "max": [
        0.9986590147018433,
        0.9989429712295532
      ],
      "min": [
        2.1368299712776206e-05,
        0.0005040168762207031
      ],
      "type": "VEC2"
    },
    {
      "bufferView": 1,
      "byteOffset": 13106400,
      "componentType": 5126,
      "count": 65532,
      "max": [
        0.9986590147018433,
        0.9989429712295532
      ],
      "min": [
        2.1368299712776206e-05,
        0.0005040168762207031
      ],
      "type": "VEC2"
    },
    {
      "bufferView": 1,
      "byteOffset": 13630656,
      "componentType": 5126,
      "count": 65532,
      "max": [
        0.9986590147018433,
        0.9989429712295532
      ],
      "min": [
        2.1368299712776206e-05,
        0.0005040168762207031
      ],
      "type": "VEC2"
    },
    {
      "bufferView": 1,
      "byteOffset": 14154912,
      "componentType": 5126,
      "count": 65532,
      "max": [
        0.9986590147018433,
        0.9989429712295532
      ],
      "min": [
        2.1368299712776206e-05,
        0.0005040168762207031
      ],
      "type": "VEC2"
    },
    {
      "bufferView": 0,
      "byteOffset": 7907628,
      "componentType": 5125,
      "count": 329505,
      "type": "SCALAR"
    },
    {
      "bufferView": 2,
      "byteOffset": 11009376,
      "componentType": 5126,
      "count": 65532,
      "max": [
        0.948835015296936,
        0.4717451333999634,
        -0.4035670757293701
      ],
      "min": [
        -0.9470109939575195,
        -0.4715539813041687,
        -0.6736921072006226
      ],
      "type": "VEC3"
    },
    {
      "bufferView": 2,
      "byteOffset": 11795760,
      "componentType": 5126,
      "count": 65532,
      "max": [
        1.0,
        1.0,
        1.0
      ],
      "min": [
        -1.0,
        -1.0,
        -1.0
      ],
      "type": "VEC3"
    },
    {
      "bufferView": 3,
      "byteOffset": 7339584,
      "componentType": 5126,
      "count": 65532,
      "max": [
        1.0,
        0.9999999403953552,
        0.9999992847442627,
        1.0
      ],
      "min": [
        -0.9999995827674866,
        -0.9999984502792358,
        -0.9999955296516418,
        -1.0
      ],
      "type": "VEC4"
    },
    {
      "bufferView": 1,
      "byteOffset": 14679168,
      "componentType": 5126,
      "count": 65532,
      "max": [
        0.9994120001792908,
        0.9999176859855652
      ],
      "min": [
        0.00023809999402146786,
        0.00015300512313842773
      ],
      "type": "VEC2"
    },
    {
      "bufferView": 1,
      "byteOffset": 15203424,
      "componentType": 5126,
      "count": 65532,
      "max": [
        0.9994120001792908,
        0.9999176859855652
      ],
      "min": [
        0.00023809999402146786,
        0.00015300512313842773
      ],
      "type": "VEC2"
    },
    {
      "bufferView": 1,
      "byteOffset": 15727680,
      "componentType": 5126,
      "count": 65532,
      "max": [
        0.9994120001792908,
        0.9999176859855652
      ],
      "min": [
        0.00023809999402146786,
        0.00015300512313842773
      ],
      "type": "VEC2"
    },
    {
      "bufferView": 1,
      "byteOffset": 16251936,
      "componentType": 5126,
      "count": 65532,
      "max": [
        0.9994120001792908,
        0.9999176859855652
      ],
      "min": [
        0.00023809999402146786,
        0.00015300512313842773
      ],
      "type": "VEC2"
    },
    {
      "bufferView": 0,
      "byteOffset": 9225648,
      "componentType": 5125,
      "count": 307026,
      "type": "SCALAR"
    },
    {
      "bufferView": 2,
      "byteOffset": 12582144,
      "componentType": 5126,
      "count": 65532,
      "max": [
        0.9488199949264526,
        0.4717160165309906,
        0.3270949721336365
      ],
      "min": [
        -0.9500679969787598,
        -0.4680320620536804,
        -0.4270060956478119
      ],
      "type": "VEC3"
    },
    {
      "bufferView": 2,
      "byteOffset": 13368528,
      "componentType": 5126,
      "count": 65532,
      "max": [
        1.0,
        1.0,
        1.0
      ],
      "min": [
        -1.0,
        -1.0,
        -0.9999986886978149
      ],
      "type": "VEC3"
    },
    {
      "bufferView": 3,
      "byteOffset": 8388096,
      "componentType": 5126,
      "count": 65532,
      "max": [
        1.0,
        1.0,
        1.0,
        1.0
      ],
      "min": [
        -0.9999998807907104,
        -0.9999985098838806,
        -1.0,
        -1.0
      ],
      "type": "VEC4"
    },
    {
      "bufferView": 1,
      "byteOffset": 16776192,
      "componentType": 5126,
      "count": 65532,
      "max": [
        0.999921977519989,
        0.9994717240333557
      ],
      "min": [
        0.0001231479982379824,
        1.0132789611816406e-06
      ],
      "type": "VEC2"
    },
    {
      "bufferView": 1,
      "byteOffset": 17300448,
      "componentType": 5126,
      "count": 65532,
      "max": [
        0.999921977519989,
        0.9994717240333557
      ],
      "min": [
        0.0001231479982379824,
        1.0132789611816406e-06
      ],
      "type": "VEC2"
    },
    {
      "bufferView": 1,
      "byteOffset": 17824704,
      "componentType": 5126,
      "count": 65532,
      "max": [
        0.999921977519989,
        0.9994717240333557
      ],
      "min": [
        0.0001231479982379824,
        1.0132789611816406e-06
      ],
      "type": "VEC2"
    },
    {
      "bufferView": 1,
      "byteOffset": 18348960,
      "componentType": 5126,
      "count": 65532,
      "max": [
        0.999921977519989,
        0.9994717240333557
      ],
      "min": [
        0.0001231479982379824,
        1.0132789611816406e-06
      ],
      "type": "VEC2"
    },
    {
      "bufferView": 0,
      "byteOffset": 10453752,
      "componentType": 5125,
      "count": 318504,
      "type": "SCALAR"
    },
    {
      "bufferView": 2,
      "byteOffset": 14154912,
      "componentType": 5126,
      "count": 65532,
      "max": [
        0.9487990140914917,
        0.47158002853393555,
        0.45547598600387573
      ],
      "min": [
        -0.9504150152206421,
        -0.4700350761413574,
        0.1794629991054535
      ],
      "type": "VEC3"
    },
    {
      "bufferView": 2,
      "byteOffset": 14941296,
      "componentType": 5126,
      "count": 65532,
      "max": [
        1.0,
        1.0,
        0.9999999403953552
      ],
      "min": [
        -1.0,
        -1.0,
        -0.9999792575836182
      ],
      "type": "VEC3"
    },
    {
      "bufferView": 3,
      "byteOffset": 9436608,
      "componentType": 5126,
      "count": 65532,
      "max": [
        0.9999964833259583,
        0.999986469745636,
        0.9999918341636658,
        1.0
      ],
      "min": [
        -0.9999998807907104,
        -0.9999948143959045,
        -1.0,
        -1.0
      ],
      "type": "VEC4"
    },
    {
      "bufferView": 1,
      "byteOffset": 18873216,
      "componentType": 5126,
      "count": 65532,
      "max": [
        0.9998170137405396,
        0.9994674324989319
      ],
      "min": [
        0.0006585770170204341,
        2.0265579223632813e-06
      ],
      "type": "VEC2"
    },
    {
      "bufferView": 1,
      "byteOffset": 19397472,
      "componentType": 5126,
      "count": 65532,
      "max": [
        0.9998170137405396,
        0.9994674324989319
      ],
      "min": [
        0.0006585770170204341,
        2.0265579223632813e-06
      ],
      "type": "VEC2"
    },
    {
      "bufferView": 1,
      "byteOffset": 19921728,
      "componentType": 5126,
      "count": 65532,
      "max": [
        0.9998170137405396,
        0.9994674324989319
      ],
      "min": [
        0.0006585770170204341,
        2.0265579223632813e-06
      ],
      "type": "VEC2"
    },
    {
      "bufferView": 1,
      "byteOffset": 20445984,
      "componentType": 5126,
      "count": 65532,
      "max": [
        0.9998170137405396,
        0.9994674324989319
      ],
      "min": [
        0.0006585770170204341,
        2.0265579223632813e-06
      ],
      "type": "VEC2"
    },
    {
      "bufferView": 0,
      "byteOffset": 11727768,
      "componentType": 5125,
      "count": 324861,
      "type": "SCALAR"
    },
    {
      "bufferView": 2,
      "byteOffset": 15727680,
      "componentType": 5126,
      "count": 65532,
      "max": [
        0.9295920133590698,
        -0.4420470893383026,
        0.5259000062942505
      ],
      "min": [
        -0.9500300288200378,
        -0.46992409229278564,
        0.3188059628009796
      ],
      "type": "VEC3"
    },
    {
      "bufferView": 2,
      "byteOffset": 16514064,
      "componentType": 5126,
      "count": 65532,
      "max": [
        0.9998583197593689,
        0.9999977946281433,
        0.9998973608016968
      ],
      "min": [
        -0.9996246099472046,
        -0.9999998211860657,
        -0.9996982216835022
      ],
      "type": "VEC3"
    },
    {
      "bufferView": 3,
      "byteOffset": 10485120,
      "componentType": 5126,
      "count": 65532,
      "max": [
        0.9999926090240479,
        0.9995845556259155,
        0.9999861717224121,
        1.0
      ],
      "min": [
        -0.9999790191650391,
        -0.9997707605361938,
        -0.9999972581863403,
        -1.0
      ],
      "type": "VEC4"
    },
    {
      "bufferView": 1,
      "byteOffset": 20970240,
      "componentType": 5126,
      "count": 65532,
      "max": [
        0.9993410110473633,
        0.996938169002533
      ],
      "min": [
        2.3380400307360105e-05,
        0.0025069713592529297
      ],
      "type": "VEC2"
    },
    {
      "bufferView": 1,
      "byteOffset": 21494496,
      "componentType": 5126,
      "count": 65532,
      "max": [
        0.9993410110473633,
        0.996938169002533
      ],
      "min": [
        2.3380400307360105e-05,
        0.0025069713592529297
      ],
      "type": "VEC2"
    },
    {
      "bufferView": 1,
      "byteOffset": 22018752,
      "componentType": 5126,
      "count": 65532,
      "max": [
        0.9993410110473633,
        0.996938169002533
      ],
      "min": [
        2.3380400307360105e-05,
        0.0025069713592529297
      ],
      "type": "VEC2"
    },
    {
      "bufferView": 1,
      "byteOffset": 22543008,
      "componentType": 5126,
      "count": 65532,
      "max": [
        0.9993410110473633,
        0.996938169002533
      ],
      "min": [
        2.3380400307360105e-05,
        0.0025069713592529297
      ],
      "type": "VEC2"
    },
    {
      "bufferView": 0,
      "byteOffset": 13027212,
      "componentType": 5125,
      "count": 325002,
      "type": "SCALAR"
    },
    {
      "bufferView": 2,
      "byteOffset": 17300448,
      "componentType": 5126,
      "count": 27817,
      "max": [
        0.9275950193405151,
        -0.32144808769226074,
        0.5545799732208252
      ],
      "min": [
        -0.9495689868927002,
        -0.4682631194591522,
        0.4273490011692047
      ],
      "type": "VEC3"
    },
    {
      "bufferView": 2,
      "byteOffset": 17634252,
      "componentType": 5126,
      "count": 27817,
      "max": [
        0.9989506602287292,
        0.9999990463256836,
        0.9999464750289917
      ],
      "min": [
        -0.9999550580978394,
        -1.0,
        -0.9999997615814209
      ],
      "type": "VEC3"
    },
    {
      "bufferView": 3,
      "byteOffset": 11533632,
      "componentType": 5126,
      "count": 27817,
      "max": [
        0.9999840259552002,
        0.9998844861984253,
        0.9999871253967285,
        1.0
      ],
      "min": [
        -0.9999939203262329,
        -0.9998780488967896,
        -0.9999764561653137,
        -1.0
      ],
      "type": "VEC4"
    },
    {
      "bufferView": 1,
      "byteOffset": 23067264,
      "componentType": 5126,
      "count": 27817,
      "max": [
        0.999330997467041,
        0.9988342523574829
      ],
      "min": [
        0.000193701998796314,
        1.0013580322265625e-05
      ],
      "type": "VEC2"
    },
    {
      "bufferView": 1,
      "byteOffset": 23289800,
      "componentType": 5126,
      "count": 27817,
      "max": [
        0.999330997467041,
        0.9988342523574829
      ],
      "min": [
        0.000193701998796314,
        1.0013580322265625e-05
      ],
      "type": "VEC2"
    },
    {
      "bufferView": 1,
      "byteOffset": 23512336,
      "componentType": 5126,
      "count": 27817,
      "max": [
        0.999330997467041,
        0.9988342523574829
      ],
      "min": [
        0.000193701998796314,
        1.0013580322265625e-05
      ],
      "type": "VEC2"
    },
    {
      "bufferView": 1,
      "byteOffset": 23734872,
      "componentType": 5126,
      "count": 27817,
      "max": [
        0.999330997467041,
        0.9988342523574829
      ],
      "min": [
        0.000193701998796314,
        1.0013580322265625e-05
      ],
      "type": "VEC2"
    },
    {
      "bufferView": 0,
      "byteOffset": 14327220,
      "componentType": 5125,
      "count": 115398,
      "type": "SCALAR"
    }
  ],
  "asset": {
    "extras": {
      "author": "craxis-09 (https://sketchfab.com/craxis-09)",
      "license": "CC-BY-4.0 (http://creativecommons.org/licenses/by/4.0/)",
      "source": "https://sketchfab.com/3d-models/3d-66a5bf238d86482b97f9fd9d961d8f8d",
      "title": "3d"
    },
    "generator": "Sketchfab-17.3.0",
    "version": "2.0"
  },
  "bufferViews": [
    {
      "buffer": 0,
      "byteLength": 14788812,
      "name": "floatBufferViews",
      "target": 34963
    },
    {
      "buffer": 0,
      "byteLength": 23957408,
      "byteOffset": 14788812,
      "byteStride": 8,
      "name": "floatBufferViews",
      "target": 34962
    },
    {
      "buffer": 0,
      "byteLength": 17968056,
      "byteOffset": 38746220,
      "byteStride": 12,
      "name": "floatBufferViews",
      "target": 34962
    },
    {
      "buffer": 0,
      "byteLength": 11978704,
      "byteOffset": 56714276,
      "byteStride": 16,
      "name": "floatBufferViews",
      "target": 34962
    }
  ],
  "buffers": [
    {
      "byteLength": 68692980,
      "uri": "scene.bin"
    }
  ],
  "images": [
    {
      "uri": "textures/material_0_baseColor.jpeg"
    },
    {
      "uri": "textures/material_0_metallicRoughness.png"
    },
    {
      "uri": "textures/material_0_normal.jpeg"
    }
  ],
  "materials": [
    {
      "doubleSided": true,
      "name": "material_0",
      "normalTexture": {
        "index": 2,
        "texCoord": 2
      },
      "pbrMetallicRoughness": {
        "baseColorTexture": {
          "index": 0
        },
        "metallicRoughnessTexture": {
          "index": 1,
          "texCoord": 1
        }
      }
    }
  ],
  "meshes": [
    {
      "name": "Object_0",
      "primitives": [
        {
          "attributes": {
            "NORMAL": 1,
            "POSITION": 0,
            "TANGENT": 2,
            "TEXCOORD_0": 3,
            "TEXCOORD_1": 4,
            "TEXCOORD_2": 5,
            "TEXCOORD_3": 6
          },
          "indices": 7,
          "material": 0,
          "mode": 4
        }
      ]
    },
    {
      "name": "Object_1",
      "primitives": [
        {
          "attributes": {
            "NORMAL": 9,
            "POSITION": 8,
            "TANGENT": 10,
            "TEXCOORD_0": 11,
            "TEXCOORD_1": 12,
            "TEXCOORD_2": 13,
            "TEXCOORD_3": 14
          },
          "indices": 15,
          "material": 0,
          "mode": 4
        }
      ]
    },
    {
      "name": "Object_2",
      "primitives": [
        {
          "attributes": {
            "NORMAL": 17,
            "POSITION": 16,
            "TANGENT": 18,
            "TEXCOORD_0": 19,
            "TEXCOORD_1": 20,
            "TEXCOORD_2": 21,
            "TEXCOORD_3": 22
          },
          "indices": 23,
          "material": 0,
          "mode": 4
        }
      ]
    },
    {
      "name": "Object_3",
      "primitives": [
        {
          "attributes": {
            "NORMAL": 25,
            "POSITION": 24,
            "TANGENT": 26,
            "TEXCOORD_0": 27,
            "TEXCOORD_1": 28,
            "TEXCOORD_2": 29,
            "TEXCOORD_3": 30
          },
          "indices": 31,
          "material": 0,
          "mode": 4
        }
      ]
    },
    {
      "name": "Object_4",
      "primitives": [
        {
          "attributes": {
            "NORMAL": 33,
            "POSITION": 32,
            "TANGENT": 34,
            "TEXCOORD_0": 35,
            "TEXCOORD_1": 36,
            "TEXCOORD_2": 37,
            "TEXCOORD_3": 38
          },
          "indices": 39,
          "material": 0,
          "mode": 4
        }
      ]
    },
    {
      "name": "Object_5",
      "primitives": [
        {
          "attributes": {
            "NORMAL": 41,
            "POSITION": 40,
            "TANGENT": 42,
            "TEXCOORD_0": 43,
            "TEXCOORD_1": 44,
            "TEXCOORD_2": 45,
            "TEXCOORD_3": 46
          },
          "indices": 47,
          "material": 0,
          "mode": 4
        }
      ]
    },
    {
      "name": "Object_6",
      "primitives": [
        {
          "attributes": {
            "NORMAL": 49,
            "POSITION": 48,
            "TANGENT": 50,
            "TEXCOORD_0": 51,
            "TEXCOORD_1": 52,
            "TEXCOORD_2": 53,
            "TEXCOORD_3": 54
          },
          "indices": 55,
          "material": 0,
          "mode": 4
        }
      ]
    },
    {
      "name": "Object_7",
      "primitives": [
        {
          "attributes": {
            "NORMAL": 57,
            "POSITION": 56,
            "TANGENT": 58,
            "TEXCOORD_0": 59,
            "TEXCOORD_1": 60,
            "TEXCOORD_2": 61,
            "TEXCOORD_3": 62
          },
          "indices": 63,
          "material": 0,
          "mode": 4
        }
      ]
    },
    {
      "name": "Object_8",
      "primitives": [
        {
          "attributes": {
            "NORMAL": 65,
            "POSITION": 64,
            "TANGENT": 66,
            "TEXCOORD_0": 67,
            "TEXCOORD_1": 68,
            "TEXCOORD_2": 69,
            "TEXCOORD_3": 70
          },
          "indices": 71,
          "material": 0,
          "mode": 4
        }
      ]
    },
    {
      "name": "Object_9",
      "primitives": [
        {
          "attributes": {
            "NORMAL": 73,
            "POSITION": 72,
            "TANGENT": 74,
            "TEXCOORD_0": 75,
            "TEXCOORD_1": 76,
            "TEXCOORD_2": 77,
            "TEXCOORD_3": 78
          },
          "indices": 79,
          "material": 0,
          "mode": 4
        }
      ]
    },
    {
      "name": "Object_10",
      "primitives": [
        {
          "attributes": {
            "NORMAL": 81,
            "POSITION": 80,
            "TANGENT": 82,
            "TEXCOORD_0": 83,
            "TEXCOORD_1": 84,
            "TEXCOORD_2": 85,
            "TEXCOORD_3": 86
          },
          "indices": 87,
          "material": 0,
          "mode": 4
        }
      ]
    },
    {
      "name": "Object_11",
      "primitives": [
        {
          "attributes": {
            "NORMAL": 89,
            "POSITION": 88,
            "TANGENT": 90,
            "TEXCOORD_0": 91,
            "TEXCOORD_1": 92,
            "TEXCOORD_2": 93,
            "TEXCOORD_3": 94
          },
          "indices": 95,
          "material": 0,
          "mode": 4
        }
      ]
    }
  ],
  "nodes": [
    {
      "children": [
        1
      ],
      "matrix": [
        1.0,
        0.0,
        0.0,
        0.0,
        0.0,
        2.220446049250313e-16,
        -1.0,
        0.0,
        0.0,
        1.0,
        2.220446049250313e-16,
        0.0,
        0.0,
        0.0,
        0.0,
        1.0
      ],
      "name": "Sketchfab_model"
    },
    {
      "children": [
        2
      ],
      "name": "root"
    },
    {
      "children": [
        3
      ],
      "matrix": [
        1.0,
        0.0,
        0.0,
        0.0,
        0.0,
        2.220446049250313e-16,
        1.0,
        0.0,
        0.0,
        -1.0,
        2.220446049250313e-16,
        0.0,
        0.0,
        0.0,
        0.0,
        1.0
      ],
      "name": "GLTF_SceneRootNode"
    },
    {
      "children": [
        4
      ],
      "name": "_1"
    },
    {
      "children": [
        5,
        6,
        7,
        8,
        9,
        10,
        11,
        12,
        13,
        14,
        15,
        16
      ],
      "name": "mesh_0_0"
    },
    {
      "mesh": 0,
      "name": "Object_5"
    },
    {
      "mesh": 1,
      "name": "Object_6"
    },
    {
      "mesh": 2,
      "name": "Object_7"
    },
    {
      "mesh": 3,
      "name": "Object_8"
    },
    {
      "mesh": 4,
      "name": "Object_9"
    },
    {
      "mesh": 5,
      "name": "Object_10"
    },
    {
      "mesh": 6,
      "name": "Object_11"
    },
    {
      "mesh": 7,
      "name": "Object_12"
    },
    {
      "mesh": 8,
      "name": "Object_13"
    },
    {
      "mesh": 9,
      "name": "Object_14"
    },
    {
      "mesh": 10,
      "name": "Object_15"
    },
    {
      "mesh": 11,
      "name": "Object_16"
    }
  ],
  "samplers": [
    {
      "magFilter": 9729,
      "minFilter": 9987,
      "wrapS": 10497,
      "wrapT": 10497
    }
  ],
  "scene": 0,
  "scenes": [
    {
      "name": "Sketchfab_Scene",
      "nodes": [
        0
      ]
    }
  ],
  "textures": [
    {
      "sampler": 0,
      "source": 0
    },
    {
      "sampler": 0,
      "source": 1
    },
    {
      "sampler": 0,
      "source": 2
    }
  ]
}
